<svg width="50" height="50" viewBox="0 0 50 50" fill="none" xmlns="http://www.w3.org/2000/svg">
<path d="M37.8049 0C34.439 0 31.3902 1.36585 29.1829 3.57317L3.57317 29.1829C1.36585 31.3902 0 34.439 0 37.8049C0 44.5366 5.45732 50 12.1951 50C15.561 50 18.6098 48.6341 20.8171 46.4268L46.4268 20.8171C48.6341 18.6098 50 15.561 50 12.1951C50 5.45732 44.5427 0 37.8049 0ZM19.0915 44.7012C17.3232 46.4695 14.8841 47.561 12.1951 47.561C6.81707 47.561 2.43902 43.1829 2.43902 37.8049C2.43902 35.1159 3.53049 32.6768 5.29878 30.9085L18.1037 18.1037L31.8963 31.8963L19.0915 44.7012Z" fill="white"/>
</svg>
