<svg width="36" height="53" viewBox="0 0 36 53" fill="none" xmlns="http://www.w3.org/2000/svg">
<path d="M0 49.2352C0 51.3109 1.7107 53 3.8129 53H32.1871C34.2893 53 36 51.3109 36 49.2352V23.1476C36 23.1328 35.9921 23.1206 35.9915 23.106C35.9863 22.9775 35.9646 22.8507 35.9148 22.7307C35.9055 22.7085 35.8897 22.6911 35.8791 22.6696C35.8454 22.6012 35.8121 22.5324 35.7636 22.471L27.879 12.492V8.34541H28.0646C28.6822 8.34541 29.1829 7.85101 29.1829 7.24124V3.1087C29.1829 1.39477 27.7703 0 26.0345 0H9.96606C8.23024 0 6.81767 1.39477 6.81767 3.1087V7.24124C6.81767 7.85101 7.31838 8.34541 7.93593 8.34541H8.11721V12.492L0.233153 22.471C0.176707 22.5425 0.135073 22.6215 0.0986941 22.7021C0.0954861 22.7093 0.0900942 22.7148 0.0870228 22.7221C0.032898 22.8489 0.00955548 22.9833 0.00573327 23.1197C0.0054603 23.1295 0 23.1377 0 23.1476V49.2352ZM9.05419 3.1087C9.05419 2.61215 9.46317 2.20833 9.96606 2.20833H26.0345C26.5374 2.20833 26.9464 2.61215 26.9464 3.1087V6.13707H9.05419V3.1087ZM32.1871 50.7917H3.8129C2.94362 50.7917 2.23652 50.0935 2.23652 49.2352V24.2545H33.7635V49.2352C33.7635 50.0935 33.0564 50.7917 32.1871 50.7917ZM25.6424 11.7679H10.3537V8.34595H25.6424V11.7679ZM9.7815 13.9762H26.2147L32.589 22.0434H3.40768L9.7815 13.9762Z" fill="white"/>
<path d="M26.0703 34.0509H21.5154V29.5534C21.5154 28.9436 21.0146 28.4492 20.3971 28.4492H15.603C14.9854 28.4492 14.4847 28.9436 14.4847 29.5534V34.0509H9.92978C9.31223 34.0509 8.81152 34.5453 8.81152 35.1551V39.8888C8.81152 40.4985 9.31223 40.9929 9.92978 40.9929H14.4847V45.4905C14.4847 46.1002 14.9854 46.5946 15.603 46.5946H20.3971C21.0146 46.5946 21.5154 46.1002 21.5154 45.4905V40.9929H26.0703C26.6878 40.9929 27.1886 40.4985 27.1886 39.8888V35.1551C27.1886 34.5453 26.6878 34.0509 26.0703 34.0509ZM24.952 38.7846H20.3971C19.7795 38.7846 19.2788 39.279 19.2788 39.8888V44.3863H16.7212V39.8888C16.7212 39.279 16.2205 38.7846 15.603 38.7846H11.048V36.2593H15.603C16.2205 36.2593 16.7212 35.7649 16.7212 35.1551V30.6576H19.2788V35.1551C19.2788 35.7649 19.7795 36.2593 20.3971 36.2593H24.952V38.7846Z" fill="white"/>
</svg>
