<svg width="50" height="50" viewBox="0 0 50 50" fill="none" xmlns="http://www.w3.org/2000/svg">
<path d="M42.766 7.43438C42.7322 7.39605 42.7073 7.35546 42.6713 7.31938C42.6329 7.28105 42.5878 7.25399 42.5472 7.21791C38.0282 2.75999 31.8338 0 25.0011 0C11.2163 0 0 11.2158 0 25C0 31.812 2.74658 37.9904 7.1799 42.5047C7.22726 42.5611 7.26559 42.6197 7.31746 42.6716C7.36707 42.7212 7.42344 42.755 7.47531 42.8001C11.9898 47.2468 18.1775 50 25.0011 50C38.7859 50 50 38.7842 50 25C50 18.1564 47.2331 11.9532 42.766 7.43438ZM25.0011 5.35537C29.4502 5.35537 33.5431 6.85939 36.8399 9.36232L9.36274 36.8382C6.8597 33.5415 5.35787 29.4467 5.35787 25C5.35787 14.1675 14.1681 5.35537 25.0011 5.35537ZM25.0011 44.6424C20.5475 44.6424 16.4479 43.1361 13.1489 40.6287L40.6282 13.1505C43.1358 16.4494 44.6421 20.5466 44.6421 25C44.6421 35.8303 35.8319 44.6424 25.0011 44.6424Z" fill="white"/>
</svg>
