<svg width="60" height="60" viewBox="0 0 60 60" fill="none" xmlns="http://www.w3.org/2000/svg">
<path d="M13.7819 58.5383L10.3016 55.058L16.7053 48.6543L22.1346 54.0835L23.5963 52.6218L20.5336 49.5592L45.522 24.5708C46.2181 23.8747 46.6357 22.9002 46.6357 21.8561C46.6357 20.9513 46.2877 20.116 45.7309 19.42L49.42 15.7309C50.3944 14.7564 50.3944 13.2251 49.42 12.3202L49.2807 12.181L60 1.46172L58.5383 0L47.9582 10.58L47.819 10.4408C46.9142 9.53596 45.3132 9.53596 44.4084 10.4408L40.7193 14.1299C39.1879 12.877 36.9606 12.9466 35.5684 14.3387L10.4408 39.3968L7.37819 36.3341L5.91647 37.7958L10.8585 42.7378L4.45476 49.1415L1.46172 46.2181L0 47.6798L12.3202 60L13.7819 58.5383ZM16.3573 36.4733L20.6729 40.7889L22.1346 39.3271L17.819 35.0116L21.2993 31.5313L24.1531 34.3852L25.6148 32.9234L22.761 30.0696L26.1717 26.6589L30.4872 30.9745L31.949 29.5128L27.6334 25.1276L31.1137 21.6473L33.9675 24.5012L35.4292 23.0394L32.5754 20.1856L36.891 15.8701C37.587 15.174 38.7007 15.174 39.3271 15.8701L44.0603 20.6032C44.4084 20.9513 44.5476 21.3689 44.5476 21.8561C44.5476 22.3434 44.3387 22.761 44.0603 23.109L19.1415 48.0974L11.9026 40.8585L16.3573 36.4733Z" fill="white"/>
</svg>
